<?xml version="1.0" standalone="no"?><!DOCTYPE svg PUBLIC "-//W3C//DTD SVG 1.1//EN" "http://www.w3.org/Graphics/SVG/1.1/DTD/svg11.dtd"><svg t="1570956880948" class="icon" viewBox="0 0 1024 1024" version="1.1" xmlns="http://www.w3.org/2000/svg" p-id="3354" xmlns:xlink="http://www.w3.org/1999/xlink" width="128" height="128"><defs><style type="text/css"></style></defs><path d="M728 64.6H138.5c-22.2 0-40.1 17.9-40.1 40v814.1c0 22.1 18 40 40.1 40H728c22.2 0 40.1-17.9 40.1-40V104.6c0-22.1-17.9-40-40.1-40zM391.5 470.8l-86.7-77.1c-7.6-6.7-19-6.7-26.6 0l-86.7 77.1v-260c0-11 9-20 20-20h160c11 0 20 9 20 20v260zM886.1 64.6h-14.8c-22.1 0-40 17.9-40 40v814.1c0 22.1 17.9 40 40 40h14.8c22.1 0 40-17.9 40-40V104.6c0-22.1-17.9-40-40-40z" p-id="3355" fill="#d81e06"></path></svg>