<?xml version="1.0" standalone="no"?><!DOCTYPE svg PUBLIC "-//W3C//DTD SVG 1.1//EN" "http://www.w3.org/Graphics/SVG/1.1/DTD/svg11.dtd"><svg t="1570957034410" class="icon" viewBox="0 0 1024 1024" version="1.1" xmlns="http://www.w3.org/2000/svg" p-id="4127" xmlns:xlink="http://www.w3.org/1999/xlink" width="128" height="128"><defs><style type="text/css"></style></defs><path d="M836.033 788.8l6 6 117.8 117.8h-235.6l-206.5 0.2h-5.8c-247.4 0-448-179.5-448-400.8s200.6-400.8 448-400.8 448 179.5 448 400.8c0.1 107.4-47.1 204.9-123.9 276.8z m-182.6-206.1c39.1 0 70.7-31.7 70.7-70.7s-31.7-70.7-70.7-70.7c-39.1 0-70.7 31.7-70.7 70.7s31.7 70.7 70.7 70.7z m-282.9 0c39.1 0 70.7-31.7 70.7-70.7s-31.7-70.7-70.7-70.7-70.7 31.7-70.7 70.7 31.6 70.7 70.7 70.7z" p-id="4128" fill="#d81e06"></path></svg>